<svg viewBox="0 0 60 60" xmlns="http://www.w3.org/2000/svg">
  <defs>
    <linearGradient id="shieldGrad" x1="0" y1="0" x2="1" y2="1">
      <stop offset="0%" stop-color="#1B3A6B"/>
      <stop offset="100%" stop-color="#0F2347"/>
    </linearGradient>
  </defs>
  <path d="M7,5 H53 V33 Q53,51 30,59 Q7,51 7,33 Z" fill="url(#shieldGrad)"/>
  <path d="M7,5 H53 V33 Q53,51 30,59 Q7,51 7,33 Z" fill="none" stroke="#C03030" stroke-width="2.5"/>
  <path d="M11,9 H49 V33 Q49,48 30,55 Q11,48 11,33 Z" fill="none" stroke="rgba(255,255,255,0.12)" stroke-width="1"/>
  <polygon points="30,14 33.5,24.1 44,24.6 35.8,31.4 38.6,42 30,36.2 21.4,42 24.2,31.4 16,24.6 26.5,24.1" fill="#ffffff"/>
</svg>
